<svg xmlns="http://www.w3.org/2000/svg" version="1.1" xmlns:xlink="http://www.w3.org/1999/xlink" xmlns:svgjs="http://svgjs.com/svgjs" width="540" height="508"><svg id="SvgjsSvg1002" width="2" height="0" focusable="false" style="overflow: hidden; top: -100%; left: -100%; position: absolute; opacity: 0"><polyline id="SvgjsPolyline1003" points="0,0"></polyline><path id="SvgjsPath1004" d="M0 0 "></path></svg><defs id="SvgjsDefs2598"></defs><defs id="SvgjsDefs2599"><style>
			.lo-name path, .lo-name {
				fill: #000000;
			}
			.lo-tagline path, .lo-tagline {
				fill: #343a40;
			}
			.lo-icon path, .lo-icon {
				fill: #5b5e5e;
			}
			.lo-shape path, .lo-shape {
				fill: #343a40;
			}
		</style></defs><g id="SvgjsG2600" fill="#5b5e5e" class="lo-icon">
	<path transform="translate(219.75, 126.75) scale(0.25,0.25)" d="M 80.500 1.965 C 40.902 10.580, 13.488 36.829, 2.776 76.387 C 0.963 83.079, 0.575 87.214, 0.556 100 C 0.532 116.237, 1.749 123.235, 7.063 137.438 L 9.144 143 15.390 143 C 25.285 143, 30.458 145.092, 39.808 152.876 C 48.994 160.523, 54.269 162.644, 60.012 160.997 C 66.426 159.157, 70.647 155.365, 75.652 146.946 C 82.071 136.147, 85.083 134.472, 96.467 135.376 C 100.885 135.727, 105.540 136.295, 106.812 136.640 C 108.790 137.175, 108.386 137.515, 104.008 138.997 C 93.645 142.506, 90.543 148.113, 89.175 165.810 C 88.502 174.522, 87.848 177.737, 86.329 179.810 C 82.941 184.434, 78.497 185.990, 68.500 186.056 C 63.550 186.089, 57.700 186.447, 55.500 186.853 L 51.500 187.591 58.279 190.860 C 62.008 192.659, 69.433 195.308, 74.779 196.747 C 83.186 199.010, 86.528 199.368, 99.500 199.395 C 116.131 199.430, 125.954 197.617, 139.138 192.077 C 155.263 185.302, 172.443 171.298, 181.897 157.220 C 188.510 147.374, 194.825 133.341, 197.071 123.500 C 198.200 118.550, 199.546 113.118, 200.062 111.429 C 201.241 107.568, 201.304 87.694, 200.135 88.417 C 199.659 88.711, 198.987 86.543, 198.641 83.600 C 197.940 77.641, 194.285 65, 193.262 65 C 192.900 65, 183.535 74, 172.451 85 C 152.563 104.737, 152.242 105, 148.024 105 C 143.789 105, 143.756 105.028, 144.362 108.062 C 146.704 119.769, 126.059 132.256, 107 130.661 C 100.182 130.090, 94 128.356, 94 127.013 C 94 126.578, 95.600 125.922, 97.556 125.556 C 102.381 124.650, 107.294 119.419, 114 108.046 C 120.495 97.032, 123.432 94.711, 130.147 95.288 L 134.794 95.687 135.442 91.639 C 136.023 88.002, 138.367 85.299, 158.545 64.999 C 170.895 52.573, 181 41.899, 181 41.279 C 181 39.270, 162.684 21.408, 156.122 17.018 C 147.427 11.202, 136.923 6.491, 125.806 3.423 C 112.728 -0.186, 93.268 -0.812, 80.500 1.965 M 0.378 100 C 0.378 106.325, 0.541 108.912, 0.739 105.750 C 0.937 102.587, 0.937 97.412, 0.739 94.250 C 0.541 91.087, 0.378 93.675, 0.378 100" stroke="none"  fill-rule="evenodd"/>
</g><path id="SvgjsPath2601" d="M0 0 " fill="#000000" transform="matrix(1,0,0,1,269.5,286)" class="lo-name"></path></svg>